<?xml version="1.0" encoding="UTF-8"?>
<svg width="24" height="24" viewBox="0 0 24 24" fill="none" xmlns="http://www.w3.org/2000/svg">
  <path d="M20.8 7.74C20.93 7.32 20.8 7 20.18 7H18.16C17.64 7 17.41 7.27 17.28 7.57C17.28 7.57 16.25 10.08 14.79 11.72C14.32 12.19 14.1 12.34 13.84 12.34C13.71 12.34 13.5 12.19 13.5 11.76V7.74C13.5 7.23 13.38 7 12.95 7H9.76C9.44 7 9.25 7.24 9.25 7.47C9.25 7.95 10.07 8.07 10.16 9.44V12.42C10.16 13.08 10.04 13.2 9.78 13.2C9 13.2 7.32 10.67 6.33 7.79C6.13 7.23 5.94 7 5.42 7H3.39C2.82 7 2.7 7.27 2.7 7.57C2.7 8.11 3.48 10.77 6 14.14C7.7 16.45 10.08 17.72 12.25 17.72C13.5 17.72 13.72 17.44 13.72 16.93V15.12C13.72 14.55 13.85 14.43 14.27 14.43C14.57 14.43 15.09 14.58 16.29 15.74C17.65 17.1 17.87 17.72 18.66 17.72H20.68C21.25 17.72 21.53 17.44 21.36 16.87C21.17 16.31 20.5 15.48 19.63 14.5C19.17 13.97 18.44 13.39 18.23 13.12C17.93 12.75 18.02 12.58 18.23 12.25C18.23 12.25 20.72 8.75 20.8 7.74Z" fill="white"/>
</svg>
