<?xml version="1.0" encoding="UTF-8"?>
<svg width="24" height="24" viewBox="0 0 24 24" fill="none" xmlns="http://www.w3.org/2000/svg">
  <path d="M21.58 7.19C21.33 6.41 20.72 5.8 19.94 5.55C18.32 5 12 5 12 5C12 5 5.68 5 4.06 5.55C3.28 5.8 2.67 6.41 2.42 7.19C1.87 8.81 1.87 12 1.87 12C1.87 12 1.87 15.19 2.42 16.81C2.67 17.59 3.28 18.2 4.06 18.45C5.68 19 12 19 12 19C12 19 18.32 19 19.94 18.45C20.72 18.2 21.33 17.59 21.58 16.81C22.13 15.19 22.13 12 22.13 12C22.13 12 22.13 8.81 21.58 7.19ZM9.75 15.27V8.73L15.5 12L9.75 15.27Z" fill="white"/>
</svg>
